<?xml version="1.0" encoding="UTF-8"?><svg id="Capa_5" xmlns="http://www.w3.org/2000/svg" viewBox="0 0 500 500"><defs><style>.cls-1{fill:#fff;}</style></defs><g id="qKXZrK.tif"><g><path class="cls-1" d="M25.01,316.09c.1-4.18,.97-8.31,2.5-12.19,2.08-5.25,5.03-9.99,9.73-13.73,6.36-5.07,13.54-7.6,21.73-7.36,1.35,.04,3.28-.47,4.01-1.44,7.99-10.54,15.79-21.22,23.95-32.27-3.66-4.49-7.77-9.32-11.64-14.34-13.53-17.55-25.22-36.13-31.16-57.76-10.53-38.31,7.4-68.2,46.28-76.91,23.94-5.36,47.92-3.6,71.84,.42,3.28,.55,6.55,1.13,9.84,1.7,3.85-9.42,7.28-18.67,11.35-27.63,8.56-18.82,18.96-36.45,34.65-50.29,21.77-19.21,54.66-20.16,76.82-1.4,3.21,2.72,5.79,3.6,10.1,2.6,13.03-3.01,26.37,2.94,33.55,14.16,7.26,11.33,6.94,26.12-1.41,36.79-2.57,3.28-2.78,5.79-1.11,9.32,1.84,3.89,3.35,7.93,4.55,12.06,1.05,3.62,2.66,4.32,6.49,3.85,15.65-1.91,31.36-4.33,47.07-4.46,12.11-.1,24.65,1.54,36.31,4.85,34.11,9.67,49.45,37.36,40.98,71.88-5.51,22.47-17.35,41.69-31.2,59.82-4.05,5.31-8.38,10.4-12.74,15.78,4.3,5.31,8.62,10.4,12.67,15.7,13.86,18.12,25.7,37.34,31.21,59.81,3.6,14.66,3.43,29.08-3.3,43.01-.6,1.23-.49,3.05-.14,4.46,3.91,15.48-2.18,30.3-15.6,37.68-13.14,7.23-28.4,4.6-39.42-6.59-1.14-1.16-3.23-2.16-4.77-2.03-20.37,1.82-40.49,.05-60.49-3.85-1.25-.24-2.51-.48-3.77-.64-.45-.06-.93,.09-1.01,.1-5.38,12.33-10.28,24.62-16.04,36.49-7.01,14.43-15.89,27.71-27.64,38.82-12.22,11.55-26.16,19.3-43.63,18.73-14.08-.46-25.85-6.45-36.28-15.39-16.24-13.92-26.95-31.82-35.71-50.96-4.11-8.97-7.52-18.25-11.44-27.85-7.58,1.16-15.38,2.61-23.25,3.52-22.01,2.53-44.02,3.27-65.49-3.5-19.68-6.21-34.96-17.81-40.07-38.7-1.4-5.7-2.7-16.2-2.7-16.2,0,0-6-4.97-8.95-8.54s-5.37-8.97-6.42-14.07c-.23-1.13-.28-2.27-.25-3.43Zm317.37-66.27c-.65-14.34-1.32-28.69-1.94-43.04-.13-2.99-.82-5.29-3.62-7.21-24.25-16.63-49.62-31.29-76.26-43.74-1.71-.8-4.43-.85-6.14-.06-26.96,12.51-52.62,27.33-76.97,44.37-1.33,.93-2.57,2.88-2.71,4.46-2.71,29.8-2.73,59.62-.1,89.42,.16,1.84,1.6,4.14,3.14,5.21,24.12,16.81,49.53,31.44,76.18,43.87,1.94,.9,5.04,.85,6.99-.06,26.48-12.39,51.78-26.9,75.75-43.65,1.86-1.3,3.45-4.22,3.6-6.5,.94-14.33,1.43-28.69,2.08-43.08Zm-148.98,142.41c1.84,4.93,3.51,9.91,5.53,14.75,7.72,18.49,16.72,36.21,31.54,50.24,17.04,16.12,35.01,16.77,52.36,1.2,19.98-17.94,29.76-41.94,38.53-66.19-14.79-5.16-29.1-10.02-43.31-15.15-6.88-2.49-13.59-7.66-20.37-7.64-6.96,.02-13.83,5.08-20.86,7.6-14.22,5.11-28.51,9.99-43.41,15.19ZM101.35,233.1c17.41-14.27,34.21-27.97,50.88-41.83,1.26-1.05,2.02-3.12,2.3-4.84,1-6.14,1.46-12.37,2.57-18.48,2.68-14.86,5.61-29.67,8.5-44.84-17.21-3.3-34.76-6.02-52.48-4.2-9.88,1.01-20.03,2.75-29.23,6.32-16.71,6.49-23.83,20.95-20.74,38.62,4.85,27.72,21.35,48.93,38.2,69.24Zm311.62,0c12.55-12.28,29.11-38.01,34.84-54.23,3.39-9.6,5.61-19.48,3.67-29.6-2.99-15.62-14.28-23.27-28.47-27.13-24.69-6.71-49.34-3.5-74.17,.95,.18,1.32,.26,2.24,.43,3.15,3.31,17.55,7.33,35,9.64,52.67,1.11,8.45,4.73,13.43,11.14,18.42,14.58,11.35,28.45,23.62,42.91,35.77ZM193.81,107.19c.82,.4,1.36,.73,1.94,.94,19.76,7.13,39.51,14.3,59.33,21.29,1.56,.55,3.73,.26,5.35-.35,11.48-4.32,22.82-9.01,34.34-13.21,8.49-3.09,17.18-5.63,26.19-8.54-1.84-4.89-3.74-9.43-5.23-14.1-.93-2.93-2.48-3.7-5.5-3.74-13.81-.19-25.94-9.48-29.97-22.67-2.7-8.83-1.52-17.33,2.64-25.35-14.02-14.26-30.4-15.77-46.17-4.32-2.44,1.77-4.78,3.75-6.9,5.9-17.85,18.05-27.52,40.68-36.02,64.15Zm219.32,158.93c-16.6,13.7-32.37,26.9-48.39,39.79-2.99,2.41-4.47,4.86-4.95,8.6-1.3,10.27-2.76,20.54-4.59,30.73-1.82,10.15-4.16,20.21-6.34,30.69,18.47,3.49,36.77,6.16,55.38,4.12,2.34-21.69,22.5-37.21,47.27-27.61,2.46-36.31-19.03-61.06-38.39-86.31ZM63.18,347.51c1.16,12.31,8.02,20.15,18.23,25.44,9.83,5.09,20.54,6.69,31.44,7.38,17.94,1.15,35.57-1.03,53.01-4.46-2.29-11.03-4.74-21.59-6.62-32.25-1.88-10.67-3.08-21.47-4.84-32.16-.27-1.61-1.76-3.26-3.1-4.41-15.52-13.27-31.11-26.44-46.69-39.63-.68-.57-1.44-1.05-2.61-1.89-7.01,9.21-13.83,18.18-20.56,27.03,17.27,20.39,7.99,48.8-18.25,54.95Zm264.84,23.95c3.14-15.78,6.04-30.3,9.06-45.49-18.11,10.46-35.24,20.36-53.19,30.74,14.84,4.96,28.96,9.68,44.13,14.76Zm-150.41-45.49c3.1,15.43,6.03,29.97,9.14,45.49,15.18-5.09,29.3-9.82,44.09-14.77-18.01-10.39-34.91-20.15-53.23-30.72Zm185.66-45.44c11.88-10.44,23.05-20.26,34.92-30.69-11.84-10.51-23.04-20.45-34.92-30.99v61.69Zm-211.91-61.69c-11.95,10.68-23.1,20.66-34.77,31.09,11.98,10.48,23.11,20.22,34.77,30.42v-61.5Zm35.8-91.11c-3.18,15.45-6.16,29.97-9.31,45.28,18.15-10.48,35.16-20.3,53.04-30.62-14.82-4.97-28.81-9.66-43.72-14.66Zm96.75,14.65c18.05,10.42,34.99,20.2,52.97,30.57-3.13-15.24-6.11-29.76-9.28-45.21-15.02,5.03-29,9.71-43.69,14.63Z"/><path class="cls-1" d="M303.51,249.4c.09,25.65-20.46,46.28-46.13,46.3-25.37,.02-46.09-20.5-46.22-45.78-.13-25.64,20.39-46.42,45.95-46.53,25.71-.11,46.31,20.32,46.4,46.01Z"/></g></g></svg>