<?xml version="1.0" encoding="UTF-8"?><svg id="Capa_3" xmlns="http://www.w3.org/2000/svg" viewBox="0 0 500 500"><defs><style>.cls-1{fill:#fff;}</style></defs><g id="dHjFnT.tif"><g><path class="cls-1" d="M251.37,5c4.23,2.5,5.81,6.12,5.73,11.1-.23,15.59,.04,31.18-.2,46.77-.04,2.64-.95,5.96-2.71,7.67-1.52,1.48-5.01,1.89-7.32,1.38-3.65-.81-5.04-4.04-5.04-7.74,0-10.5,0-21,0-31.5,0-5.57,.25-11.15-.07-16.7-.29-5.01,1.38-8.63,5.79-10.99h3.82Z"/><path class="cls-1" d="M249.76,401.64c-18.3,0-36.6,.02-54.9,0-8.16-.01-10.03-2.45-10.48-10.54-.57-10.29-1.27-20.65-3.16-30.75-2.54-13.59-9.45-24.87-19.52-34.72-54.66-53.42-48.52-143.56,12.61-189.54,69.44-52.24,169.88-20.34,195.27,62.74,14.29,46.78,4,89.33-30.05,124.24-18.43,18.89-24.01,40.72-24.61,65.35-.03,1.27,.05,2.55,0,3.82-.33,6.94-2.78,9.38-9.76,9.4-17.03,.05-34.06,.02-51.08,.02-1.43,0-2.86,0-4.3,0Zm49.62-15.73c.91-7.62,1.49-14.75,2.66-21.79,2.99-17.95,9.38-34.43,22.7-47.36,27.68-26.87,38.93-59.47,33.62-97.46-4.52-32.37-20.99-57.92-48.23-75.68-46.86-30.56-105.71-22.42-143.47,19-38.62,42.37-36.46,111.65,5.08,151.27,12.83,12.24,20.68,26.89,24.14,43.98,1.85,9.16,2.84,18.5,4.26,28.03h99.25Z"/><path class="cls-1" d="M248.99,448.26c-16.71,0-33.43,.12-50.14-.05-9.12-.09-16.74-6.77-18.17-15.32-1.5-9.02,3.08-17.67,11.45-20.79,2.91-1.08,6.2-1.56,9.33-1.57,31.99-.11,63.99-.12,95.98-.04,11.46,.03,19.7,6.68,20.76,16.34,1.3,11.78-7.16,21.25-19.56,21.39-16.55,.19-33.11,.05-49.66,.05v-.02Zm.44-15.47c15.26,0,30.52,0,45.79,0,1.27,0,2.71,.04,3.76-.15,.02,0,.03-.02,.04-.02,2.39-1.33,2.65-4.73,.6-6.54-.27-.24-.55-.48-1.2-.65-.71-.19-1.19-.14-1.98-.14-31.48,0-62.96,0-94.44,0-.95,0-2.31,.28-3,.71-1.32,.82-1.91,1.47-2,3s.58,2.62,1.96,3.48c1.05,.66,2.78,.3,4.2,.3,15.42,.01,30.84,0,46.26,0Z"/><path class="cls-1" d="M249.18,494.07c-11.13,0-22.27,.05-33.4-.01-11.81-.07-20.38-7.9-20.58-18.67-.2-10.66,8.36-19.1,20.09-19.19,22.74-.17,45.49-.17,68.24,0,11.87,.09,20.26,8.33,20.06,19.12-.2,10.8-8.75,18.66-20.52,18.73-11.29,.07-22.59,.02-33.88,.02Zm.13-15.67c7.64,0,15.28,.01,22.92,0,4.14,0,8.31,.23,12.39-.28,.29-.04,.57-.16,.84-.35,1.96-1.36,1.89-4.27,.06-5.81-.34-.29-.92-.76-1.36-.8-1.2-.12-1.57-.12-2.53-.12-21.48,0-42.97,0-64.45,0-1.27,0-3.22,.05-4.21,.59-1.21,.67-1.73,1.71-1.77,2.85-.04,1.16,.76,2.76,1.93,3.45,1.11,.65,2.78,.44,4.2,.44,10.66,.03,21.32,.02,31.99,.02Z"/><path class="cls-1" d="M130.84,40.27c1.08,.8,3.9,1.98,5.3,4.1,9.27,14.06,18.32,28.28,27.26,42.56,2.74,4.38,1.61,8.91-2.2,11.32-3.83,2.42-7.96,1.33-10.93-3.27-8.97-13.89-17.89-27.8-26.68-41.8-3.96-6.31-1.04-12.79,7.25-12.91Z"/><path class="cls-1" d="M403.39,160.72c-3.11,1.32-6.79,.76-9.17-1.64-.51-.51-.89-1.05-1.08-1.66-.75-2.43-.18-4.83,.86-7.42,.53-1.33,3.16-2.96,4.68-3.79,13.55-7.34,27.11-14.66,40.69-21.94,1.52-.82,3.15-1.61,4.82-1.94,3.65-.72,6.81,.46,8.26,4,1.35,3.32,.86,6.68-2.27,8.98-1.91,1.4-4.06,2.48-6.15,3.61-12.85,6.96-25.7,13.92-38.59,20.82-.65,.35-1.32,.66-2.05,.97Z"/><path class="cls-1" d="M103.94,149.17c2.33,2.65,2.87,6.56,.95,9.52s-5.73,3.94-9.55,2.05c-6.54-3.23-12.87-6.9-19.29-10.39-8.23-4.47-16.48-8.91-24.67-13.45-5.35-2.97-6.81-6.57-4.58-10.79,2.21-4.17,6.85-5.2,11.99-2.43,14.25,7.69,28.53,15.35,42.62,23.33,.98,.55,1.82,1.34,2.54,2.17Z"/><path class="cls-1" d="M376.83,44.17c3.55,2.27,4.36,6.99,2,10.48,0,.01-.02,.03-.03,.04-9.37,14.2-18.78,28.36-28.28,42.47-2.83,4.21-6.6,5.16-10.19,2.95-3.76-2.32-4.86-6.58-2.13-10.77,9.47-14.51,19.11-28.91,28.79-43.27,1.93-2.87,5-4.52,8.25-2.82,.49,.25,1.02,.57,1.58,.92Z"/><path class="cls-1" d="M346.9,235.73c0,1.27,.04,2.55,0,3.82-.16,4.71-2.93,7.88-7.02,8.13-4.12,.24-7.36-2.53-7.99-7.21-.53-3.93-.51-7.93-1.08-11.85-5.65-39.49-38.26-68.94-78.17-70.69-.79-.03-1.59-.03-2.38-.09-5.12-.39-8.56-3.67-8.35-7.94,.22-4.32,3.82-7.29,9.05-7.19,12.36,.23,24.26,2.72,35.75,7.33,34.7,13.91,59.35,49,60.19,85.7Z"/></g></g></svg>