<?xml version="1.0" encoding="UTF-8"?><svg id="Capa_1" xmlns="http://www.w3.org/2000/svg" viewBox="0 0 500 500"><defs><style>.cls-1{fill:#fff;}</style></defs><g id="SF9rbq.tif"><g><path class="cls-1" d="M489.63,209.26v242.57c-.25,.41-.65,.8-.74,1.25-4.96,23.53-20.75,36.5-44.65,36.5-127.41,.01-254.82,.02-382.22,0-30.51,0-51.6-20.9-51.61-51.27-.05-125.6-.05-251.2,0-376.8,.01-30.04,20.75-51,50.69-51.04,92.15-.1,184.29-.09,276.44,.09,6.04,.01,12.36,.94,18.06,2.87,20.56,6.96,32.63,25.17,32.69,48.6,.09,34.44,.02,68.87,.02,103.31,0,1.91,0,3.83,0,6,2.62,0,4.44,0,6.26,0,17.8,0,35.6-.16,53.39,.08,18.84,.25,34.9,13.03,39.85,31.22,.6,2.21,1.21,4.42,1.82,6.63Zm-138.74-38.29h18.79v-5.26c0-34.44,.02-68.87,0-103.31-.02-20.75-12.5-33.25-33.22-33.25-91.48-.02-182.96-.02-274.44,0-20.52,0-32.98,12.37-32.98,32.89-.03,125.26-.03,250.53,0,375.79,0,20.48,12.58,32.96,32.97,32.96,74.18,0,148.36,0,222.54,0,1.73,0,3.47,0,6.38,0-10.63-14.82-6.16-31.19-7.84-46.84h-6.45c-72.02,0-144.04,0-216.06,0-10.14,0-12.95-2.85-12.95-13.13,0-42.42,0-84.84,.02-127.26,0-1.98,0-4.04,.48-5.93,1.18-4.6,4.45-6.94,9.11-7.04,4.44-.09,8.3,3.31,9.02,7.82,.29,1.79,.17,3.65,.17,5.48,0,38.43,0,76.86,0,115.28v5.72h216.76c.12-1.45,.3-2.58,.3-3.71,.02-33.6,.07-67.21-.11-100.81-.01-2.16-1.32-4.8-2.88-6.38-22.23-22.46-44.61-44.78-66.97-67.11-.85-.85-1.88-1.51-3.34-2.66,0,2.6,.06,4.42-.01,6.23-.21,5.86-3.79,9.71-9.08,9.82-5.35,.12-9.4-3.5-9.55-9.36-.26-9.97-.22-19.96,0-29.94,.11-4.83,2.78-8.79,7.7-9,11.11-.47,22.26-.47,33.37,0,4.93,.21,7.8,4.69,7.54,9.55-.26,4.7-3.76,8.29-8.66,8.68-2.24,.18-4.5,.03-5.39,.03,18.98,19.01,38.33,38.38,57.4,57.48,0-1.07,0-3.05,0-5.03,.05-16.97-.39-33.95,.29-50.89,.85-21.21,15.82-37.1,36.83-40.12,3.7-.53,7.5-.44,11.11-.62V79.91H66.44c0,2.14,0,3.95,0,5.76,0,38.43,0,76.86,0,115.28,0,1.83,.17,3.71-.18,5.47-.92,4.56-3.72,7.37-8.46,7.82-4.57,.44-8.45-2.34-9.64-6.91-.41-1.58-.49-3.28-.49-4.93-.03-43.25-.03-86.5,0-129.76,0-8.42,3.38-11.77,11.88-11.78,93.14-.02,186.29-.02,279.43,0,8.77,0,11.92,3.27,11.93,12.16,.01,30.78,0,61.55,0,92.33v5.62Zm-4.39,191.09c-14.69-14.85-29.45-29.78-43.92-44.4v99.69h167.72V247.63h-168.13c0,13.46-.09,26.57,.12,39.67,.02,1.51,1.49,3.23,2.69,4.44,17.82,17.93,35.7,35.8,53.59,53.67,.85,.85,1.87,1.52,3.35,2.71,0-3.27-.09-5.75,.02-8.22,.26-5.75,4.05-9.72,9.24-9.79,5.17-.07,9.35,3.84,9.47,9.54,.21,10.48,.2,20.96,.01,31.44-.1,5.72-3.72,9.55-9.34,9.68-10.64,.25-21.29,.24-31.93,0-5.7-.13-9.56-4.41-9.41-9.59,.15-5,3.96-8.76,9.43-9.1,2.61-.16,5.24-.03,7.08-.03Zm-44.26,74.52c0,4.35-.26,8.18,.05,11.97,1,12.46,10.57,22.11,22.76,22.16,40.89,.19,81.78,.16,122.66,.01,10.81-.04,19.9-7.5,22.11-18.15,1.06-5.09,.76-10.46,1.1-16h-168.68Zm168.25-208.28c0-6.18,.52-12.01-.11-17.72-1.25-11.44-10.81-20.28-22.27-20.33-41.05-.18-82.1-.15-123.15-.02-9.91,.03-18.89,6.37-21.21,15.88-1.72,7.06-1.47,14.61-2.12,22.19h168.85Z"/><path class="cls-1" d="M56.98,251.79c-4.89-.05-9.19-4.31-9.28-9.2-.1-5.12,4.27-9.46,9.47-9.41,5.22,.05,9.43,4.43,9.22,9.6-.19,4.95-4.49,9.05-9.41,9Z"/><path class="cls-1" d="M225.62,442.52c.11,5.12-3.77,9.22-8.91,9.43-5.46,.22-9.64-3.65-9.75-9.02-.1-5.24,3.62-9.22,8.84-9.43,5.42-.23,9.72,3.72,9.83,9.02Z"/><path class="cls-1" d="M395.84,453.38c-.03,5.23-4.45,9.5-9.64,9.32-4.94-.18-9.16-4.53-9.13-9.42,.03-4.89,4.31-9.2,9.24-9.31,5.21-.12,9.56,4.18,9.53,9.42Z"/><path class="cls-1" d="M386.81,199.96c7.31,0,14.62-.11,21.93,.04,6.27,.13,10.09,3.8,10.08,9.29-.02,5.47-3.86,9.18-10.14,9.23-14.79,.13-29.58,.12-44.36,0-6.28-.05-10.25-3.7-10.39-9.05-.14-5.55,3.94-9.38,10.45-9.48,7.47-.12,14.95-.03,22.43-.03Z"/></g></g></svg>