<?xml version="1.0" encoding="UTF-8"?><svg id="Capa_4" xmlns="http://www.w3.org/2000/svg" viewBox="0 0 500 500"><defs><style>.cls-1{fill:#fff;}</style></defs><g id="ceQFLG.tif"><g><path class="cls-1" d="M289.66,262.04c6.38,4.37,8.49,5.13,14.57,5.26,32.51,.66,65.01,1.59,97.51,2.43,1.46,.04,2.94,.04,4.36,.28,3.65,.62,5.66,3.02,6.03,6.61,.37,3.61-1.1,6.57-4.56,8.06-3.02,1.3-6.19,2.25-9.31,3.29-30.94,10.25-61.91,20.4-92.79,30.86-2.78,.94-5.74,3.34-7.32,5.86-14.94,23.88-46.38,31.18-69.14,15.81-22.43-15.15-26.96-47.33-9.85-69.94,16.89-22.32,48.82-26.55,70.47-8.52Z"/><path class="cls-1" d="M461.21,325.36h32.5c-1.5,37.75-10.76,72.95-28.07,106.7-9.48-5.55-18.62-10.9-28.27-16.55,14.3-28.28,22.15-58.17,23.83-90.15Z"/><path class="cls-1" d="M38.78,325.42c1.7,31.74,9.46,61.66,23.87,90.07-9.54,5.61-18.69,10.99-28.24,16.61-17.37-33.63-26.55-68.87-28.14-106.68H38.78Z"/><path class="cls-1" d="M364.06,96.5c-5.55,9.78-10.76,18.97-16.28,28.7-27.89-14.69-57.27-22.68-88.5-24.22v-33.02c36.95,1.26,71.48,10.86,104.78,28.54Z"/><path class="cls-1" d="M152.23,125.22c-5.58-9.86-10.79-19.06-16.23-28.67,32.97-17.69,67.56-27.17,104.7-28.64v33.01c-30.9,1.65-60.32,9.49-88.47,24.31Z"/><path class="cls-1" d="M71.69,200.54c-9.49-5.57-18.64-10.93-28.18-16.53,20.11-32.19,45.44-57.96,76.89-78.28,5.54,9.77,10.82,19.1,16.25,28.68-26.41,17.35-47.88,39.27-64.96,66.12Z"/><path class="cls-1" d="M456.53,183.99c-9.66,5.69-18.67,10.99-27.11,15.96-10.15-12.19-19.32-24.73-30.05-35.68-10.76-10.98-23.09-20.37-35.33-30.98,4.72-8.34,9.98-17.64,15.58-27.54,31.44,20.2,56.67,46.05,76.92,78.23Z"/><path class="cls-1" d="M62.65,216.44c-14.46,28.38-22.16,58.27-23.84,90H6.35c1.42-37.67,10.73-72.94,28.14-106.57,9.51,5.6,18.65,10.98,28.16,16.57Z"/><path class="cls-1" d="M493.73,306.42h-32.5c-1.75-31.53-9.3-61.52-23.9-89.93,9.48-5.58,18.65-10.98,28.18-16.59,17.38,33.36,26.52,68.53,28.22,106.53Z"/></g></g></svg>