<svg width="15" height="15" viewBox="0 0 15 15" fill="none" xmlns="http://www.w3.org/2000/svg">
<g clip-path="url(#clip0_38_373)">
<path fill-rule="evenodd" clip-rule="evenodd" d="M9.375 0.9375C9.81012 0.9375 10.2274 1.11035 10.5351 1.41803C10.8428 1.7257 11.0156 2.143 11.0156 2.57812V3.75H12.1875C12.6848 3.75 13.1617 3.94754 13.5133 4.29917C13.865 4.65081 14.0625 5.12772 14.0625 5.625V12.1875C14.0625 12.6848 13.865 13.1617 13.5133 13.5133C13.1617 13.865 12.6848 14.0625 12.1875 14.0625H2.8125C2.31522 14.0625 1.83831 13.865 1.48668 13.5133C1.13505 13.1617 0.937501 12.6848 0.937501 12.1875V5.625C0.937501 5.12772 1.13505 4.65081 1.48668 4.29917C1.83831 3.94754 2.31522 3.75 2.8125 3.75H3.98438V2.57812C3.98438 2.143 4.15723 1.7257 4.4649 1.41803C4.77258 1.11035 5.18988 0.9375 5.625 0.9375H9.375ZM5.39063 3.75V2.57812C5.39063 2.51596 5.41532 2.45635 5.45927 2.4124C5.50323 2.36844 5.56284 2.34375 5.625 2.34375H9.375C9.43716 2.34375 9.49677 2.36844 9.54073 2.4124C9.58468 2.45635 9.60938 2.51596 9.60938 2.57812V3.75H5.39063ZM12.1875 5.15625H2.8125C2.68818 5.15625 2.56895 5.20564 2.48104 5.29354C2.39314 5.38145 2.34375 5.50068 2.34375 5.625V6.5625H12.6563V5.625C12.6563 5.50068 12.6069 5.38145 12.519 5.29354C12.431 5.20564 12.3118 5.15625 12.1875 5.15625ZM12.6563 7.96875V12.1875C12.6563 12.3118 12.6069 12.431 12.519 12.519C12.431 12.6069 12.3118 12.6562 12.1875 12.6562H2.8125C2.68818 12.6562 2.56895 12.6069 2.48104 12.519C2.39314 12.431 2.34375 12.3118 2.34375 12.1875V7.96875H6.5625V9.375H8.4375V7.96875H12.6563Z" fill="#8C8C8C"/>
</g>
<defs>
<clipPath id="clip0_38_373">
<rect width="15" height="15" fill="white" transform="matrix(-1 0 0 1 15 0)"/>
</clipPath>
</defs>
</svg>
