<svg width="15" height="15" viewBox="0 0 15 15" fill="none" xmlns="http://www.w3.org/2000/svg">
<g clip-path="url(#clip0_38_366)">
<path d="M12.6562 6.21094V13.125C12.6562 13.2493 12.6069 13.3685 12.519 13.4565C12.431 13.5444 12.3118 13.5938 12.1875 13.5938H9.375V9.60938C9.375 9.42289 9.30092 9.24405 9.16906 9.11219C9.0372 8.98033 8.85836 8.90625 8.67188 8.90625H6.32812C6.14164 8.90625 5.9628 8.98033 5.83094 9.11219C5.69908 9.24405 5.625 9.42289 5.625 9.60938V13.5938H2.8125C2.68818 13.5938 2.56895 13.5444 2.48104 13.4565C2.39314 13.3685 2.34375 13.2493 2.34375 13.125V6.21094" stroke="#8C8C8C" stroke-width="1.5" stroke-linecap="round" stroke-linejoin="round"/>
<path d="M0.937501 7.49998L7.18096 1.52341C7.32744 1.36873 7.66992 1.36697 7.81904 1.52341L14.0625 7.49998M3.28125 5.24412V1.87498H4.6875V3.89646" stroke="#8C8C8C" stroke-width="1.5" stroke-linecap="round" stroke-linejoin="round"/>
</g>
<defs>
<clipPath id="clip0_38_366">
<rect width="15" height="15" fill="white" transform="matrix(-1 0 0 1 15 0)"/>
</clipPath>
</defs>
</svg>
