<svg width="17" height="17" viewBox="0 0 17 17" fill="none" xmlns="http://www.w3.org/2000/svg">
<path d="M12.246 4.08199C12.2812 3.97619 12.3489 3.88416 12.4393 3.81894C12.5298 3.75373 12.6385 3.71863 12.75 3.71863C12.8615 3.71863 12.9702 3.75373 13.0607 3.81894C13.1512 3.88416 13.2188 3.97619 13.254 4.08199L15.9103 12.0507C15.9369 12.1306 15.9442 12.2157 15.9315 12.2989C15.9188 12.3821 15.8865 12.4611 15.8373 12.5294C15.7881 12.5977 15.7233 12.6533 15.6484 12.6917C15.5734 12.73 15.4905 12.75 15.4063 12.75H10.0938C10.0096 12.75 9.92661 12.73 9.85168 12.6917C9.77674 12.6533 9.71199 12.5977 9.66277 12.5294C9.61354 12.4611 9.58125 12.3821 9.56856 12.2989C9.55586 12.2157 9.56313 12.1306 9.58975 12.0507L12.246 4.08199ZM14.6692 11.6875L12.75 5.93008L10.8309 11.6875H14.6692ZM3.18752 5.04688C3.18752 4.36391 3.39004 3.69629 3.76948 3.12842C4.14891 2.56056 4.68822 2.11796 5.31919 1.85661C5.95017 1.59525 6.64448 1.52686 7.31432 1.6601C7.98416 1.79334 8.59945 2.12222 9.08237 2.60515C9.5653 3.08808 9.89418 3.70336 10.0274 4.37321C10.1607 5.04305 10.0923 5.73735 9.83092 6.36833C9.56956 6.99931 9.12696 7.53861 8.5591 7.91805C7.99124 8.29748 7.32361 8.5 6.64065 8.5C5.72514 8.49895 4.84744 8.1348 4.20008 7.48744C3.55272 6.84008 3.18858 5.96238 3.18752 5.04688ZM9.03127 5.04688C9.03127 4.57406 8.89106 4.11185 8.62838 3.71872C8.36569 3.32558 7.99233 3.01917 7.5555 2.83823C7.11867 2.65729 6.63799 2.60994 6.17426 2.70219C5.71052 2.79443 5.28455 3.02211 4.95022 3.35645C4.61588 3.69078 4.3882 4.11675 4.29596 4.58049C4.20371 5.04422 4.25106 5.5249 4.432 5.96173C4.61294 6.39856 4.91935 6.77192 5.31249 7.03461C5.70562 7.29729 6.16783 7.4375 6.64065 7.4375C7.27468 7.4375 7.88274 7.18563 8.33107 6.7373C8.7794 6.28897 9.03127 5.68091 9.03127 5.04688ZM2.12502 9.5625H7.96877C8.10967 9.5625 8.24479 9.61847 8.34442 9.7181C8.44405 9.81773 8.50002 9.95286 8.50002 10.0938V13.8125C8.50002 13.9534 8.44405 14.0885 8.34442 14.1882C8.24479 14.2878 8.10967 14.3438 7.96877 14.3438H2.12502C1.98413 14.3438 1.849 14.2878 1.74937 14.1882C1.64974 14.0885 1.59377 13.9534 1.59377 13.8125V10.0938C1.59377 9.95286 1.64974 9.81773 1.74937 9.7181C1.849 9.61847 1.98413 9.5625 2.12502 9.5625ZM2.65627 13.2813H7.43752V10.625H2.65627V13.2813Z" fill="#8C8C8C"/>
</svg>
