<svg width="12" height="12" viewBox="0 0 12 12" fill="none" xmlns="http://www.w3.org/2000/svg">
<g clip-path="url(#clip0_38_375)">
<path d="M11.625 3H1.875C1.66781 3 1.5 2.83219 1.5 2.625V1.125C1.5 0.917812 1.66781 0.75 1.875 0.75H11.625C11.8322 0.75 12 0.917812 12 1.125V2.625C12 2.83219 11.8322 3 11.625 3ZM0.375 4.875H10.125C10.3322 4.875 10.5 5.04281 10.5 5.25V6.75C10.5 6.95719 10.3322 7.125 10.125 7.125H0.375C0.167812 7.125 0 6.95719 0 6.75V5.25C0 5.04281 0.167812 4.875 0.375 4.875ZM1.875 9H11.625C11.8322 9 12 9.16781 12 9.375V10.875C12 11.0822 11.8322 11.25 11.625 11.25H1.875C1.66781 11.25 1.5 11.0822 1.5 10.875V9.375C1.5 9.16781 1.66781 9 1.875 9Z" fill="#8C8C8C"/>
</g>
<defs>
<clipPath id="clip0_38_375">
<rect width="12" height="12" fill="white" transform="matrix(-1 0 0 1 12 0)"/>
</clipPath>
</defs>
</svg>
