<svg width="20" height="20" viewBox="0 0 20 20" fill="none" xmlns="http://www.w3.org/2000/svg">
<g clip-path="url(#clip0_24_116)">
<g clip-path="url(#clip1_24_116)">
<path d="M12.417 2.22242C12.6651 2.29222 12.8754 2.45771 13.0016 2.6825C13.1277 2.9073 13.1595 3.17299 13.0898 3.42117L8.78282 18.7706C8.74835 18.8936 8.68999 19.0085 8.6111 19.1089C8.5322 19.2093 8.4343 19.2932 8.32298 19.3558C8.21167 19.4183 8.08912 19.4583 7.96234 19.4736C7.83555 19.4888 7.70702 19.4788 7.58407 19.4444C7.46112 19.4099 7.34616 19.3515 7.24576 19.2726C7.14536 19.1937 7.06149 19.0958 6.99892 18.9845C6.93636 18.8732 6.89633 18.7507 6.88113 18.6239C6.86593 18.4971 6.87585 18.3686 6.91032 18.2456L11.2173 2.89617C11.2517 2.77311 11.3101 2.65804 11.389 2.55755C11.468 2.45707 11.566 2.37314 11.6774 2.31056C11.7889 2.24799 11.9115 2.20799 12.0384 2.19287C12.1653 2.17774 12.294 2.18779 12.417 2.22242ZM5.34018 6.02089C5.52244 6.20321 5.62483 6.45046 5.62483 6.70826C5.62483 6.96605 5.52244 7.2133 5.34018 7.39562L1.90337 10.8334L5.34018 14.2702C5.43051 14.3605 5.50217 14.4676 5.55108 14.5856C5.6 14.7036 5.62519 14.83 5.62524 14.9577C5.62528 15.0854 5.60017 15.2119 5.55135 15.3299C5.50252 15.4479 5.43093 15.5551 5.34066 15.6454C5.2504 15.7357 5.14323 15.8074 5.02526 15.8563C4.9073 15.9052 4.78086 15.9304 4.65316 15.9305C4.52546 15.9305 4.399 15.9054 4.28101 15.8566C4.16301 15.8077 4.05579 15.7362 3.96546 15.6459L-0.159683 11.5208C-0.341946 11.3384 -0.444336 11.0912 -0.444336 10.8334C-0.444336 10.5756 -0.341946 10.3284 -0.159683 10.146L3.96546 6.02089C4.14778 5.83863 4.39502 5.73624 4.65282 5.73624C4.91062 5.73624 5.15786 5.83863 5.34018 6.02089ZM14.6599 7.39562C14.567 7.30593 14.493 7.19865 14.442 7.08004C14.3911 6.96142 14.3643 6.83385 14.3631 6.70476C14.362 6.57567 14.3866 6.44764 14.4355 6.32816C14.4844 6.20868 14.5566 6.10013 14.6479 6.00884C14.7391 5.91756 14.8477 5.84537 14.9672 5.79648C15.0867 5.7476 15.2147 5.723 15.3438 5.72412C15.4729 5.72524 15.6004 5.75206 15.719 5.80302C15.8377 5.85397 15.9449 5.92804 16.0346 6.02089L20.1598 10.146C20.342 10.3284 20.4444 10.5756 20.4444 10.8334C20.4444 11.0912 20.342 11.3384 20.1598 11.5208L16.0346 15.6459C15.8522 15.8282 15.6048 15.9306 15.3469 15.9305C15.089 15.9304 14.8417 15.8278 14.6594 15.6454C14.4771 15.463 14.3748 15.2156 14.3748 14.9577C14.3749 14.6998 14.4775 14.4525 14.6599 14.2702L18.0967 10.8334L14.6599 7.39562Z" fill="url(#paint0_linear_24_116)"/>
</g>
</g>
<defs>
<linearGradient id="paint0_linear_24_116" x1="6.51858" y1="-0.12003" x2="22.8532" y2="16.7779" gradientUnits="userSpaceOnUse">
<stop stop-color="#6610F2"/>
<stop offset="1" stop-color="#F736E3"/>
</linearGradient>
<clipPath id="clip0_24_116">
<rect width="20" height="20" fill="white"/>
</clipPath>
<clipPath id="clip1_24_116">
<rect width="23.3333" height="23.3333" fill="white" transform="translate(-1.66663 -0.833252)"/>
</clipPath>
</defs>
</svg>
