<svg width="22" height="22" viewBox="0 0 22 22" fill="none" xmlns="http://www.w3.org/2000/svg">
<path d="M8.25 4.125V6.1875H3.99575C3.70975 5.39275 2.95144 4.8125 2.0625 4.8125C0.931563 4.8125 0 5.74406 0 6.875C0 8.00594 0.931563 8.9375 2.0625 8.9375C2.95144 8.9375 3.70906 8.35725 3.99644 7.5625H5.58594C5.30406 7.83063 5.05931 8.1235 4.83381 8.44319C4.03906 9.56862 3.57156 10.9567 3.45881 12.375H1.375V17.875H6.875V12.375H4.85512C4.96856 11.2255 5.34394 10.0973 5.951 9.23794C6.54225 8.40056 7.30194 7.81481 8.25 7.62712V9.625H13.75V7.62712C14.6981 7.81481 15.4578 8.40056 16.049 9.23862C16.6561 10.098 17.0321 11.2255 17.1442 12.375H15.125V17.875H20.625V12.375H18.5412C18.4284 10.9567 17.9609 9.56862 17.1662 8.44319C16.945 8.12565 16.6931 7.83067 16.4141 7.5625H18.0042C18.2909 8.35725 19.0486 8.9375 19.9375 8.9375C21.0684 8.9375 22 8.00594 22 6.875C22 5.74406 21.0684 4.8125 19.9375 4.8125C19.0486 4.8125 18.2909 5.39275 18.0036 6.1875H13.75V4.125H8.25ZM9.625 5.5H12.375V8.25H9.625V5.5ZM2.0625 6.1875C2.44956 6.1875 2.75 6.48863 2.75 6.875C2.75 7.26206 2.44887 7.5625 2.0625 7.5625C1.67544 7.5625 1.375 7.26137 1.375 6.875C1.375 6.48794 1.67613 6.1875 2.0625 6.1875ZM19.9375 6.1875C20.3246 6.1875 20.625 6.48863 20.625 6.875C20.625 7.26206 20.3239 7.5625 19.9375 7.5625C19.5504 7.5625 19.25 7.26137 19.25 6.875C19.25 6.48794 19.5511 6.1875 19.9375 6.1875ZM2.75 13.75H5.5V16.5H2.75V13.75ZM16.5 13.75H19.25V16.5H16.5V13.75Z" fill="url(#paint0_linear_24_109)"/>
<defs>
<linearGradient id="paint0_linear_24_109" x1="7.33333" y1="2.29155" x2="19.7083" y2="19.2499" gradientUnits="userSpaceOnUse">
<stop stop-color="#6610F2"/>
<stop offset="1" stop-color="#F736E3"/>
</linearGradient>
</defs>
</svg>
