<svg width="25" height="25" viewBox="0 0 25 25" fill="none" xmlns="http://www.w3.org/2000/svg">
<path d="M17.0417 14.5833C17.125 13.8958 17.1875 13.2083 17.1875 12.4999C17.1875 11.7916 17.125 11.1041 17.0417 10.4166H20.5625C20.7292 11.0833 20.8334 11.7812 20.8334 12.4999C20.8334 13.2187 20.7292 13.9166 20.5625 14.5833M15.198 20.3749C15.823 19.2187 16.3021 17.9687 16.6355 16.6666H19.7084C18.6992 18.4044 17.0981 19.7208 15.198 20.3749ZM14.9375 14.5833H10.0625C9.95837 13.8958 9.89587 13.2083 9.89587 12.4999C9.89587 11.7916 9.95837 11.0937 10.0625 10.4166H14.9375C15.0313 11.0937 15.1042 11.7916 15.1042 12.4999C15.1042 13.2083 15.0313 13.8958 14.9375 14.5833ZM12.5 20.7916C11.6355 19.5416 10.9375 18.1562 10.5105 16.6666H14.4896C14.0625 18.1562 13.3646 19.5416 12.5 20.7916ZM8.33337 8.33325H5.29171C6.29029 6.59058 7.89031 5.27205 9.79171 4.62492C9.16671 5.78117 8.69796 7.03117 8.33337 8.33325ZM5.29171 16.6666H8.33337C8.69796 17.9687 9.16671 19.2187 9.79171 20.3749C7.89407 19.7211 6.29618 18.4043 5.29171 16.6666ZM4.43754 14.5833C4.27087 13.9166 4.16671 13.2187 4.16671 12.4999C4.16671 11.7812 4.27087 11.0833 4.43754 10.4166H7.95837C7.87504 11.1041 7.81254 11.7916 7.81254 12.4999C7.81254 13.2083 7.87504 13.8958 7.95837 14.5833M12.5 4.19784C13.3646 5.44784 14.0625 6.84367 14.4896 8.33325H10.5105C10.9375 6.84367 11.6355 5.44784 12.5 4.19784ZM19.7084 8.33325H16.6355C16.3089 7.04326 15.8262 5.79795 15.198 4.62492C17.1146 5.28117 18.7084 6.60409 19.7084 8.33325ZM12.5 2.08325C6.73962 2.08325 2.08337 6.77075 2.08337 12.4999C2.08337 15.2626 3.18084 17.9121 5.13435 19.8656C6.10162 20.8329 7.24995 21.6002 8.51376 22.1237C9.77756 22.6472 11.1321 22.9166 12.5 22.9166C15.2627 22.9166 17.9122 21.8191 19.8657 19.8656C21.8192 17.9121 22.9167 15.2626 22.9167 12.4999C22.9167 11.132 22.6473 9.77744 22.1238 8.51363C21.6003 7.24982 20.833 6.1015 19.8657 5.13422C18.8985 4.16695 17.7501 3.39966 16.4863 2.87617C15.2225 2.35269 13.868 2.08325 12.5 2.08325Z" fill="url(#paint0_linear_310_2)"/>
<defs>
<linearGradient id="paint0_linear_310_2" x1="9.02782" y1="-0.694695" x2="28.4823" y2="15.9677" gradientUnits="userSpaceOnUse">
<stop stop-color="#6610F2"/>
<stop offset="1" stop-color="#F736E3"/>
</linearGradient>
</defs>
</svg>
