<svg width="45" height="44" viewBox="0 0 45 44" fill="none" xmlns="http://www.w3.org/2000/svg">
<g clip-path="url(#clip0_34_354)">
<path d="M3.73975 0H40.8647C42.7633 0 44.3022 1.53897 44.3022 3.4375V40.5625C44.3022 42.461 42.7633 44 40.8647 44H3.73975C1.84121 44 0.302246 42.461 0.302246 40.5625V3.4375C0.302246 1.53897 1.84121 0 3.73975 0Z" fill="#3178C6"/>
<path d="M26.1725 34.4566V39.2038C26.9446 39.5995 27.8578 39.8961 28.9119 40.094C29.966 40.2918 31.077 40.3906 32.245 40.3906C33.3832 40.3906 34.4646 40.2818 35.489 40.0642C36.5134 39.8466 37.4118 39.4881 38.1837 38.9888C38.9557 38.4893 39.5669 37.8366 40.0174 37.0305C40.4677 36.2245 40.6929 35.2282 40.6929 34.0414C40.6929 33.181 40.5641 32.4268 40.3068 31.779C40.0524 31.1356 39.674 30.5484 39.1933 30.0508C38.7084 29.5463 38.1268 29.094 37.4489 28.6933C36.7709 28.2929 36.0062 27.9146 35.1549 27.5586C34.5313 27.3013 33.9722 27.0517 33.4772 26.8094C32.9824 26.5671 32.5616 26.3199 32.2153 26.0676C31.8688 25.8155 31.6015 25.5484 31.4135 25.2665C31.2255 24.9846 31.1315 24.6658 31.1315 24.3097C31.1315 23.9833 31.2155 23.6892 31.3838 23.4271C31.552 23.165 31.7897 22.94 32.0965 22.7521C32.4033 22.5641 32.7794 22.4183 33.2249 22.3144C33.6702 22.2105 34.1652 22.1586 34.7096 22.1586C35.1056 22.1586 35.5237 22.1884 35.9641 22.2477C36.4046 22.307 36.8475 22.3984 37.293 22.5222C37.7371 22.6453 38.1713 22.8015 38.592 22.9895C39 23.1703 39.3902 23.3888 39.7575 23.6421V19.2065C39.035 18.9296 38.2455 18.7244 37.3894 18.5909C36.5333 18.4573 35.5509 18.3906 34.4423 18.3906C33.3139 18.3906 32.245 18.5118 31.2354 18.7541C30.2259 18.9963 29.3374 19.3746 28.5704 19.8889C27.8033 20.4033 27.1971 21.0585 26.7516 21.8546C26.3062 22.6507 26.0835 23.6026 26.0835 24.7103C26.0835 26.1245 26.4917 27.331 27.3084 28.33C28.125 29.3287 29.3646 30.1744 31.0275 30.8667C31.6413 31.1167 32.2502 31.3788 32.8537 31.653C33.4179 31.9101 33.9054 32.1771 34.3161 32.454C34.7269 32.7308 35.0511 33.0325 35.2886 33.3589C35.5261 33.6853 35.6449 34.0562 35.6449 34.4716C35.6469 34.7706 35.57 35.0648 35.4221 35.3246C35.2738 35.5865 35.0485 35.8141 34.7467 36.007C34.4449 36.1998 34.0686 36.3505 33.6183 36.4593C33.168 36.5681 32.6409 36.6226 32.0371 36.6226C31.0077 36.6226 29.9883 36.4421 28.9787 36.081C27.969 35.7201 27.0336 35.1787 26.1725 34.4566ZM18.2601 22.6432H24.3647V18.7344H7.34912V22.6432H13.424V40.0469H18.2601V22.6432Z" fill="white"/>
</g>
<defs>
<clipPath id="clip0_34_354">
<rect width="44" height="44" fill="white" transform="translate(0.302246)"/>
</clipPath>
</defs>
</svg>
