<svg width="42" height="40" viewBox="0 0 42 40" fill="none" xmlns="http://www.w3.org/2000/svg">
<g clip-path="url(#clip0_34_321)">
<path d="M0.779068 0.711914H41.4856V39.8182H0.779068V0.711914Z" fill="#F7DF1E"/>
<path d="M11.4824 33.3919L14.5974 31.5808C15.1984 32.6045 15.7451 33.4706 17.0564 33.4706C18.3134 33.4706 19.1061 32.9983 19.1061 31.1609V18.6655H22.9314V31.2128C22.9314 35.0191 20.6089 36.7517 17.2204 36.7517C14.1602 36.7517 12.3839 35.2292 11.4822 33.3916M25.0092 32.9981L28.1239 31.2657C28.9439 32.5521 30.0096 33.497 31.8948 33.497C33.48 33.497 34.4906 32.7357 34.4906 31.6856C34.4906 30.4257 33.4523 29.9793 31.7035 29.2445L30.7474 28.8504C27.9874 27.722 26.1568 26.3044 26.1568 23.3118C26.1568 20.5555 28.3427 18.4553 31.7584 18.4553C34.1903 18.4553 35.9391 19.2692 37.1959 21.3955L34.2173 23.2332C33.5614 22.1044 32.8512 21.6582 31.7582 21.6582C30.6378 21.6582 29.9274 22.3407 29.9274 23.2332C29.9274 24.3356 30.6378 24.7821 32.2772 25.4647L33.2335 25.8583C36.4853 27.1973 38.3159 28.5622 38.3159 31.6332C38.3159 34.9411 35.6109 36.7522 31.9767 36.7522C28.4246 36.7522 26.1292 35.1247 25.009 32.9983" fill="black"/>
</g>
<defs>
<clipPath id="clip0_34_321">
<rect width="40.7066" height="39.1063" fill="white" transform="translate(0.779068 0.711914)"/>
</clipPath>
</defs>
</svg>
