<svg width="44" height="40" viewBox="0 0 44 40" fill="none" xmlns="http://www.w3.org/2000/svg">
<path d="M19.2461 22.2551L16.5555 30.1055H16.5473L14.4637 36.102C14.6113 36.143 14.7508 36.1758 14.8984 36.2168H14.923C16.2477 36.57 17.6127 36.7493 18.9836 36.75C19.6673 36.7551 20.3503 36.7057 21.0262 36.6023C21.9306 36.489 22.8229 36.294 23.6922 36.0199C23.9055 35.9543 24.1188 35.8805 24.332 35.8066C24.1023 35.3145 23.6102 34.2234 23.5855 34.1742L19.2461 22.2551ZM4.62813 14.8066C3.80781 16.6605 3.25 18.941 3.25 21C3.25 21.5168 3.27461 22.0336 3.32383 22.5422C3.88984 28.3828 7.66328 33.2883 12.8477 35.4949C13.0609 35.5852 13.2824 35.6754 13.5039 35.7574L5.875 14.8148C5.21875 14.7902 5.0957 14.8312 4.62813 14.8066Z" fill="white"/>
<path d="M33.2898 14.3883C32.9369 13.6285 32.5226 12.8988 32.0512 12.2063C31.9199 12.0094 31.7723 11.8125 31.6328 11.6156C29.8553 9.22997 27.4416 7.39339 24.6684 6.31642C22.8596 5.6089 20.934 5.24717 18.9918 5.25002C16.6389 5.25007 14.3162 5.77862 12.195 6.79663C10.0737 7.81464 8.20828 9.29611 6.73633 11.1317C6.2031 11.7926 5.72308 12.4948 5.30078 13.2317C6.46562 13.2399 7.90938 13.2399 8.07344 13.2399C9.5582 13.2399 11.8469 13.0594 11.8469 13.0594C12.618 13.0102 12.7 14.134 11.9371 14.2242C11.9371 14.2242 11.166 14.3145 10.3129 14.3555L15.4727 29.6953L18.5734 20.4012L16.375 14.3637C15.6039 14.3227 14.8902 14.2324 14.8902 14.2324C14.1191 14.1914 14.2176 13.0184 14.9723 13.0676C14.9723 13.0676 17.3102 13.2481 18.7047 13.2481C20.1895 13.2481 22.4781 13.0676 22.4781 13.0676C23.241 13.0184 23.3395 14.1422 22.5684 14.2324C22.5684 14.2324 21.8055 14.3227 20.9523 14.3637L26.0629 29.5887L27.482 24.8637C28.1957 23.0262 28.5566 21.5086 28.5566 20.2945C28.5566 18.5473 27.925 17.3332 27.3836 16.3899C26.6699 15.2168 25.9973 14.2324 25.9973 13.0758C25.9973 11.7715 26.9816 10.5574 28.3762 10.5574H28.5566C30.7059 10.5 31.4113 12.6328 31.5016 14.0848V14.134C31.5344 14.7246 31.5098 15.1594 31.5098 15.6762C31.5098 17.1035 31.2391 18.7195 30.4352 20.7457L27.2359 29.9988L25.4066 35.3883C25.5543 35.3227 25.6937 35.257 25.8414 35.1832C30.4926 32.9356 33.8805 28.4567 34.5941 23.1492C34.6999 22.4433 34.7521 21.7303 34.75 21.0164C34.7531 18.7269 34.2547 16.4645 33.2898 14.3883Z" fill="white"/>
<path d="M19 3.9375C22.9365 3.93953 26.7514 5.30227 29.7982 7.79486C32.8451 10.2875 34.9366 13.7567 35.7185 17.6147C36.5005 21.4728 35.9247 25.4826 34.0888 28.9648C32.2528 32.447 29.2696 35.1875 25.6445 36.7221C21.4748 38.4843 16.7757 38.518 12.5812 36.8156C8.38662 35.1132 5.04013 31.8143 3.27789 27.6445C1.51565 23.4748 1.48202 18.7757 3.1844 14.5812C4.88677 10.3866 8.18571 7.04013 12.3555 5.27789C14.4575 4.38842 16.7175 3.93252 19 3.9375ZM19 2.625C8.85191 2.625 0.625 10.8519 0.625 21C0.625 31.1481 8.85191 39.375 19 39.375C29.1481 39.375 37.375 31.1481 37.375 21C37.375 10.8519 29.1481 2.625 19 2.625Z" fill="white"/>
<g clip-path="url(#clip0_329_4)">
<path d="M35.7613 0.249756C31.3677 0.249756 27.8067 3.67078 27.8067 7.89165C27.8067 12.1112 31.3677 15.5335 35.7613 15.5335C40.1549 15.5335 43.7159 12.1125 43.7159 7.89165C43.7159 3.67205 40.1549 0.249756 35.7613 0.249756ZM33.7727 11.0758H32.4469V4.70753H33.7727V11.0758ZM39.0757 11.0758H35.0984V9.80212H39.0757V11.0758ZM39.0757 8.52847H35.0984V7.25483H39.0757V8.52847ZM39.0757 5.98118H35.0984V4.70753H39.0757V5.98118Z" fill="#A71C3D"/>
<path d="M39.0757 5.98118H35.0984V4.70753H39.0757V5.98118Z" fill="white"/>
<path d="M33.7727 11.0758H32.4469V4.70753H33.7727V11.0758Z" fill="white"/>
<path d="M39.0757 11.0758H35.0984V9.80212H39.0757V11.0758Z" fill="white"/>
<path d="M39.0757 8.52847H35.0984V7.25483H39.0757V8.52847Z" fill="white"/>
</g>
<defs>
<clipPath id="clip0_329_4">
<rect width="15.9092" height="15.2838" fill="white" transform="translate(27.8067 0.249756)"/>
</clipPath>
</defs>
</svg>
