<svg width="29" height="42" viewBox="0 0 29 42" fill="none" xmlns="http://www.w3.org/2000/svg">
<g clip-path="url(#clip0_34_295)">
<path d="M7.25 42C11.252 42 14.5 38.864 14.5 35V28H7.25C3.248 28 0 31.136 0 35C0 38.864 3.248 42 7.25 42Z" fill="#0ACF83"/>
<path d="M0 21C0 17.136 3.248 14 7.25 14H14.5V28H7.25C3.248 28 0 24.864 0 21Z" fill="#A259FF"/>
<path d="M0 7C0 3.136 3.248 0 7.25 0H14.5V14H7.25C3.248 14 0 10.864 0 7Z" fill="#F24E1E"/>
<path d="M14.5 0H21.75C25.752 0 29 3.136 29 7C29 10.864 25.752 14 21.75 14H14.5V0Z" fill="#FF7262"/>
<path d="M29 21C29 24.864 25.752 28 21.75 28C17.748 28 14.5 24.864 14.5 21C14.5 17.136 17.748 14 21.75 14C25.752 14 29 17.136 29 21Z" fill="#1ABCFE"/>
</g>
<defs>
<clipPath id="clip0_34_295">
<rect width="29" height="42" fill="white"/>
</clipPath>
</defs>
</svg>
