<svg width="36" height="39" viewBox="0 0 36 39" fill="none" xmlns="http://www.w3.org/2000/svg">
<path d="M3.80016 34.5786L0.602783 0.125H35.7376L32.5371 34.5734L18.1489 38.4055L3.80016 34.5786Z" fill="#1572B6"/>
<path d="M18.1706 35.4765L29.7971 32.3798L32.5324 2.94189H18.1706V35.4765Z" fill="#33A9DC"/>
<path d="M18.1706 15.4245H23.991L24.393 11.0974H18.1706V6.87183H29.2002L29.0946 8.0056L28.0133 19.6501H18.1706V15.4245Z" fill="white"/>
<path d="M18.1967 26.3985L18.1773 26.404L13.2788 25.1334L12.9655 21.7632H8.55078L9.16679 28.3981L18.1766 30.8004L18.1967 30.7949V26.3985Z" fill="#EBEBEB"/>
<path d="M23.617 19.4712L23.0872 25.13L18.1814 26.4022V30.7986L27.1985 28.3978L27.2647 27.6838L28.0298 19.4712H23.617Z" fill="white"/>
<path d="M18.1855 6.87183V11.0974H7.56107L7.47298 10.1479L7.27262 8.0056L7.16736 6.87183H18.1855ZM18.1705 15.4251V19.6507H13.3338L13.2457 18.7012L13.045 16.5589L12.9401 15.4251H18.1705Z" fill="#EBEBEB"/>
</svg>
