<svg width="37" height="40" viewBox="0 0 37 40" fill="none" xmlns="http://www.w3.org/2000/svg">
<path d="M4.13366 35.9814L0.851837 0.621338H36.9125L33.6263 35.9757L18.8603 39.9087L4.13366 35.9814Z" fill="#E44F26"/>
<path d="M18.8822 36.9032L30.8148 33.7252L33.6219 3.51318H18.8822V36.9032Z" fill="#F1662A"/>
<path d="M18.8822 16.6268H12.9086L12.4967 12.1859H18.8822V7.84888H7.56302L7.6711 9.01347L8.77965 20.9638H18.8822V16.6268ZM18.8822 27.8896L18.8617 27.8952L13.8346 26.5917L13.5132 23.1331H8.9812L9.61361 29.941L18.8617 32.4077L18.8822 32.4021V27.8896Z" fill="#EBEBEB"/>
<path d="M18.8661 16.6268V20.9638H24.4249L23.9021 26.5889L18.8661 27.8938V32.4063L28.1215 29.941L28.1887 29.2086L29.2491 17.7914L29.3601 16.6268H28.1434H18.8661ZM18.8661 7.84888V12.1859H29.7705L29.861 11.2122L30.067 9.01347L30.1751 7.84888H18.8661Z" fill="white"/>
</svg>
